<?xml version="1.0" encoding="utf-8"?>
<!-- Generator: Adobe Illustrator 17.0.0, SVG Export Plug-In . SVG Version: 6.00 Build 0)  -->
<!DOCTYPE svg PUBLIC "-//W3C//DTD SVG 1.1//EN" "http://www.w3.org/Graphics/SVG/1.1/DTD/svg11.dtd">
<svg version="1.1" id="Layer_1" xmlns="http://www.w3.org/2000/svg" xmlns:xlink="http://www.w3.org/1999/xlink" x="0px" y="0px"
	 width="8px" height="8px" viewBox="0 0 8 8" enable-background="new 0 0 8 8" xml:space="preserve">
<g>
	<path fill="#FFFFFF" d="M3.825,0.004c-2.024,0.1-3.573,1.824-3.573,3.848v1.899l0,0c0,0.45,0,1.374,0,1.874
		C0.252,7.8,0.427,7.9,0.577,7.8l0.575-0.35c0.225-0.125,0.5-0.125,0.725,0l0.525,0.3c0.225,0.125,0.5,0.125,0.725,0l0.525-0.3
		c0.225-0.125,0.5-0.125,0.725,0L4.9,7.75c0.225,0.125,0.5,0.125,0.725,0l0.525-0.3c0.225-0.125,0.5-0.125,0.725,0l0.55,0.325
		C7.573,7.85,7.748,7.75,7.748,7.6c0-0.525,0-1.449,0-1.874l0,0V3.727C7.748,1.628,5.974-0.096,3.825,0.004z"/>
	<g>
		<g>
			<g>
			</g>
		</g>
	</g>
</g>
<ellipse fill="#212121" cx="2.359" cy="3.125" rx="0.734" ry="0.719"/>
<ellipse fill="#212121" cx="5.359" cy="3.125" rx="0.734" ry="0.719"/>
<path fill="#333333" d="M3.094,3.125c-0.609,0-0.734,0.719-0.734,0.719l0.232-0.04l0.136-0.061l0.146-0.105l0.12-0.154l0.07-0.156"
	/>
<path fill="#333333" d="M6.094,3.125c-0.609,0-0.734,0.719-0.734,0.719l0.232-0.04l0.136-0.061l0.146-0.105l0.12-0.154l0.07-0.156"
	/>
</svg>
