<?xml version="1.0" encoding="utf-8"?>
<!-- Generator: Adobe Illustrator 17.0.0, SVG Export Plug-In . SVG Version: 6.00 Build 0)  -->
<!DOCTYPE svg PUBLIC "-//W3C//DTD SVG 1.1//EN" "http://www.w3.org/Graphics/SVG/1.1/DTD/svg11.dtd">
<svg version="1.1" id="Layer_1" xmlns="http://www.w3.org/2000/svg" xmlns:xlink="http://www.w3.org/1999/xlink" x="0px" y="0px"
	 width="32px" height="32px" viewBox="0 0 32 32" enable-background="new 0 0 32 32" xml:space="preserve">
<path fill="#FFFFFF" d="M14.707,3.453c0.746-0.633,1.84-0.633,2.587,0l10,8.484C27.742,12.317,28,12.875,28,13.463V26
	c0,1.105-0.895,2-2,2h-7.667c-0.552,0-1-0.448-1-1v-8.333h-2.667V27c0,0.552-0.448,1-1,1H6c-1.105,0-2-0.895-2-2V13.463
	c0-0.587,0.259-1.145,0.707-1.525C4.707,11.937,14.707,3.453,14.707,3.453z M16,4.979L6,13.463V26h6.667v-8.333c0-0.552,0.448-1,1-1
	h4.667c0.552,0,1,0.448,1,1V26H26V13.463L16,4.979z"/>
</svg>
