<?xml version="1.0" encoding="utf-8"?>
<!-- Generator: Adobe Illustrator 17.0.0, SVG Export Plug-In . SVG Version: 6.00 Build 0)  -->
<!DOCTYPE svg PUBLIC "-//W3C//DTD SVG 1.1//EN" "http://www.w3.org/Graphics/SVG/1.1/DTD/svg11.dtd">
<svg version="1.1" id="Layer_1" xmlns="http://www.w3.org/2000/svg" xmlns:xlink="http://www.w3.org/1999/xlink" x="0px" y="0px"
	 width="32px" height="32px" viewBox="0 0 32 32" enable-background="new 0 0 32 32" xml:space="preserve">
<g>
	<path fill="#FFFFFF" d="M16,3.2c-3.535,0-6.4,2.865-6.4,6.4S12.465,16,16,16s6.4-2.865,6.4-6.4S19.535,3.2,16,3.2z M11.2,9.6
		c0-2.651,2.149-4.8,4.8-4.8s4.8,2.149,4.8,4.8s-2.149,4.8-4.8,4.8S11.2,12.251,11.2,9.6z"/>
	<path fill="#FFFFFF" d="M8.014,17.6c-1.768-0.007-3.207,1.421-3.214,3.189c0,0.004,0,0.007,0,0.011
		c0,2.706,1.333,4.746,3.416,6.075C10.267,28.182,13.032,28.8,16,28.8s5.733-0.618,7.784-1.925c2.083-1.328,3.416-3.371,3.416-6.075
		c0-1.767-1.433-3.2-3.2-3.2C24,17.6,8.014,17.6,8.014,17.6z M6.4,20.8c0-0.885,0.717-1.6,1.614-1.6H24c0.884,0,1.6,0.716,1.6,1.6
		c0,2.094-0.995,3.654-2.677,4.725C21.211,26.618,18.776,27.2,16,27.2s-5.211-0.582-6.923-1.675C7.397,24.453,6.4,22.896,6.4,20.8z"
		/>
</g>
</svg>
