<?xml version="1.0" encoding="utf-8"?>
<!-- Generator: Adobe Illustrator 17.0.0, SVG Export Plug-In . SVG Version: 6.00 Build 0)  -->
<!DOCTYPE svg PUBLIC "-//W3C//DTD SVG 1.1//EN" "http://www.w3.org/Graphics/SVG/1.1/DTD/svg11.dtd">
<svg version="1.1" id="Layer_1" xmlns="http://www.w3.org/2000/svg" xmlns:xlink="http://www.w3.org/1999/xlink" x="0px" y="0px"
	 width="32px" height="32px" viewBox="0 0 32 32" enable-background="new 0 0 32 32" xml:space="preserve">
<path fill="#FFFFFF" d="M17.253,16l7.369-7.369c0.319-0.373,0.276-0.934-0.097-1.253c-0.333-0.285-0.824-0.285-1.156,0L16,14.747
	L8.631,7.369c-0.349-0.349-0.914-0.349-1.262,0s-0.349,0.914,0,1.262L14.747,16l-7.378,7.369c-0.373,0.319-0.416,0.88-0.097,1.253
	c0.319,0.373,0.88,0.416,1.253,0.097c0.035-0.03,0.067-0.062,0.097-0.097L16,17.253l7.369,7.369
	c0.373,0.319,0.934,0.276,1.253-0.097c0.285-0.333,0.285-0.824,0-1.156L17.253,16z"/>
</svg>
