<?xml version="1.0" encoding="utf-8"?>
<!-- Generator: Adobe Illustrator 17.0.0, SVG Export Plug-In . SVG Version: 6.00 Build 0)  -->
<!DOCTYPE svg PUBLIC "-//W3C//DTD SVG 1.1//EN" "http://www.w3.org/Graphics/SVG/1.1/DTD/svg11.dtd">
<svg version="1.1" id="Layer_1" xmlns="http://www.w3.org/2000/svg" xmlns:xlink="http://www.w3.org/1999/xlink" x="0px" y="0px"
	 width="32px" height="32px" viewBox="0 0 32 32" enable-background="new 0 0 32 32" xml:space="preserve">
<path fill="#FFFFFF" d="M6.667,6.667h8C15.4,6.667,16,6.067,16,5.333S15.4,4,14.667,4h-8C5.2,4,4,5.2,4,6.667v18.667
	C4,26.8,5.2,28,6.667,28h8C15.4,28,16,27.4,16,26.667c0-0.733-0.6-1.333-1.333-1.333h-8V6.667z"/>
<path fill="#FFFFFF" d="M27.533,15.533l-3.72-3.72c-0.257-0.264-0.68-0.27-0.945-0.013c-0.129,0.126-0.202,0.299-0.202,0.479v2.387
	h-9.333C12.6,14.667,12,15.267,12,16s0.6,1.333,1.333,1.333h9.333v2.387c0,0.6,0.72,0.893,1.133,0.467l3.72-3.72
	C27.787,16.213,27.787,15.787,27.533,15.533z"/>
</svg>
